<svg version="1.1" viewBox="0.0 0.0 960.0 540.0" fill="none" stroke="none" stroke-linecap="square" stroke-miterlimit="10" xmlns:xlink="http://www.w3.org/1999/xlink" xmlns="http://www.w3.org/2000/svg"><clipPath id="g1443fd437c7_0_0.0"><path d="m0 0l960.0 0l0 540.0l-960.0 0l0 -540.0z" clip-rule="nonzero"/></clipPath><g clip-path="url(#g1443fd437c7_0_0.0)"><path fill="#000000" fill-opacity="0.0" d="m0 0l960.0 0l0 540.0l-960.0 0z" fill-rule="evenodd"/><defs><linearGradient id="g1443fd437c7_0_0.1" gradientUnits="userSpaceOnUse" gradientTransform="matrix(26.054221801691604 0.0 0.0 26.054221801691604 0.0 0.0)" spreadMethod="pad" x1="-2.712096782242674" y1="10.84268908869226" x2="15.710986093532938" y2="29.2658400418828"><stop offset="0.0" stop-color="#9900ff"/><stop offset="0.59" stop-color="#863ab9"/><stop offset="1.0" stop-color="#ff00ff"/></linearGradient></defs><path fill="url(#g1443fd437c7_0_0.1)" d="m169.33842 122.50029l0 0c0 -44.183662 35.817932 -80.0016 80.0016 -80.0016l319.99677 0l0 0c21.217773 0 41.566467 8.428715 56.569702 23.431923c15.003235 15.003212 23.431946 35.351936 23.431946 56.56968l0 319.99683c0 44.183655 -35.817932 80.00156 -80.00165 80.00156l-319.99677 0c-44.18367 0 -80.0016 -35.8179 -80.0016 -80.00156z" fill-rule="evenodd"/><path fill="#ffffff" d="m263.78738 389.6668q0 16.203125 -18.562485 16.203125q-18.546875 0 -18.546875 -16.203125l0 -135.60938q0 -13.828125 4.375 -23.9375q4.390625 -10.125 13.84375 -16.53125q17.874985 -12.828125 35.749985 -12.828125l54.3125 0q17.203125 0 35.75 12.828125q18.21875 12.8125 18.21875 40.46875l0 135.60938q0 16.203125 -18.546875 16.203125q-18.5625 0 -18.5625 -16.203125l0 -132.5625q0 -8.78125 -5.390625 -16.875l0.34375 0.34375q-4.390625 -8.09375 -17.890625 -8.09375l-42.15625 0q-13.828125 0 -18.21875 8.09375q-4.71875 7.078125 -4.71875 16.53125l0 132.5625zm278.28586 -103.890625q8.4375 0 18.046875 3.875q9.625 3.875 18.046875 9.609375l-0.328125 0q8.765625 6.421875 13.484375 16.546875q4.71875 10.109375 4.71875 24.28125l0 10.109375q0 27.671875 -18.203125 40.828125q-8.78125 6.734375 -17.890625 9.78125q-9.09375 3.03125 -17.875 3.03125l-57.34378 0q-8.765625 0 -17.875 -3.03125q-9.109375 -3.046875 -17.875 -9.78125q-18.21875 -12.828125 -18.21875 -40.828125l0 -4.046875q0 -14.5 18.546875 -14.15625q18.890625 0 18.890625 14.15625l0 3.71875q0 8.09375 5.0625 15.1875q5.0625 7.078125 17.875 7.078125l44.53128 0q12.8125 0 17.875 -7.078125q5.0625 -7.09375 5.0625 -15.1875l0 -9.453125q0 -4.375 -1.1875 -8.421875q-1.171875 -4.0625 -3.875 -7.265625q-2.6875 -3.203125 -7.078125 -5.21875q-4.390625 -2.03125 -10.796875 -2.03125l-49.25003 0q-17.203125 0 -36.09375 -12.140625q-17.875 -11.46875 -17.875 -39.46875l0 -11.46875q0 -13.484375 4.71875 -23.765625q4.71875 -10.296875 13.5 -16.71875l-0.34375 0q8.4375 -5.734375 17.875 -9.4375q9.453125 -3.71875 18.21875 -3.71875l53.96878 0q8.78125 0 18.046875 3.71875q9.28125 3.703125 18.046875 9.4375l-0.328125 0q8.765625 6.421875 13.484375 16.71875q4.734375 10.28125 4.734375 23.765625l0 3.03125q0 7.09375 -4.734375 10.296875q-4.71875 3.203125 -13.828125 3.546875q-18.546875 0.328125 -18.546875 -13.84375l0 -2.6875q0 -8.4375 -5.234375 -15.34375q-5.234375 -6.921875 -17.703125 -6.921875l-41.828156 0q-12.484375 0 -17.71875 6.921875q-5.21875 6.90625 -5.21875 15.34375l0 8.09375q0 8.765625 5.21875 15.859375q5.234375 7.078125 17.71875 7.078125l49.578156 0z" fill-rule="nonzero"/></g></svg>