<svg width="466" height="432" xmlns="http://www.w3.org/2000/svg" xmlns:xlink="http://www.w3.org/1999/xlink" overflow="hidden"><defs><clipPath id="clip0"><rect x="727" y="324" width="466" height="432"/></clipPath><clipPath id="clip1"><rect x="748" y="472" width="446" height="178"/></clipPath></defs><g clip-path="url(#clip0)" transform="translate(-727 -324)"><path d="M445.895 321.742C445.636 327.259 445.731 330.104 446.24 330.19 446.593 330.277 447.024 329.242 447.619 327.087 450.119 332.777 451.844 335.535 452.887 335.277 454.085 334.932 454.257 330.363 453.318 321.397 450.809 321.483 448.395 321.569 445.895 321.742ZM1.56905 342.432C1.13799 343.898 0.706944 346.053 0.531839 348.812 0.360071 352.692 0.962897 356.485 1.56905 356.485 2.00011 356.485 2.08434 354.243 3.80857 351.485 4.49887 350.45 5.18925 349.674 5.62031 349.157 6.31069 350.45 6.82597 351.054 7.1728 350.967 7.7756 350.795 7.7756 348.122 7.1728 342.863ZM82.864 290.705C83.9856 289.93 85.4503 288.895 86.922 287.688 88.3876 286.395 88.7238 285.964 88.6462 285.533 88.5514 283.981 84.5882 283.119 84.2451 283.033 88.8186 279.412 89.7583 278.119 89.5859 277.774 89.2497 277.17 84.5882 278.463 82.0898 281.998 80.2776 284.498 80.1061 287.257 80.1061 288.636 80.9682 289.326 81.9182 290.016 82.864 290.705ZM35.7071 282.257C33.5518 283.464 31.5681 283.895 30.2749 284.067 29.2412 284.498 28.5507 285.36 28.3791 286.395 28.2076 287.688 28.9817 288.981 30.2749 289.498L30.2749 297.947C30.3629 298.12 31.3965 299.499 33.2923 299.585 35.2761 299.671 36.4847 298.033 36.5692 297.947L36.5692 292.516C38.3814 291.999 39.3271 291.05 39.8461 290.447 41.5704 288.378 41.5704 285.619 41.4824 281.05 41.4824 279.326 41.3109 277.946 41.2264 276.998 40.4487 278.119 38.8125 280.532 35.7071 282.257ZM296.239 55.6927C295.557 55.0858 295.204 54.3995 295.032 53.9684 295.032 53.7926 294.868 52.6753 293.833 51.8968 292.618 51.1226 291.324 51.5537 291.247 51.5537 290.557 52.0683 288.911 53.0184 286.583 53.2779 284.35 53.5374 282.626 52.9305 281.841 52.5873 282.014 53.7926 282.367 55.9479 283.919 58.1032 284.6 59.1411 286.247 61.3801 289.342 62.0706 291.85 62.6732 293.911 61.8991 294.773 61.5516 295.126 63.1043 295.463 64.657 295.807 66.1217 296.42 66.1217 298.144 65.9501 299.437 64.657 301.161 62.8448 301.334 59.6558 299.609 56.8979 299.006 56.9859 297.532 56.81 296.239 55.6927ZM432.634 373.641 430.479 323.466 399.52 322.862 397.623 373.555 402.632 407.608 412.116 407.608 410.9 370.451 415.469 341.139 421.332 375.71 429.263 403.125 439.177 403.125ZM369.872 78.1939 382.709 53.8831 377.795 51.3847 361.251 74.5739 337.189 71.2133C336.68 71.0375 331.844 69.4012 328.568 71.8996 325.042 74.6618 324.343 81.6424 328.999 87.247 343.31 87.1608 357.535 87.1608 371.855 87.0746L396.597 87.0746 395.563 79.8345ZM30.8879 361.227C30.8008 361.658 30.1982 364.589 29.4197 368.468ZM43.3015 351.743C44.5067 362.692 45.7163 373.641 46.9215 384.59L42.0083 423.816 33.8182 423.816 33.8182 386.487C32.3535 380.538 30.8008 374.589 29.3361 368.641 27.5239 378.124 24.6781 393.383 24.6781 393.383L16.3164 419.85 7.1797 419.85 13.7301 388.814 14.2491 350.881C17.9561 349.933 23.3013 348.898 29.8508 349.243 35.3709 349.502 39.9401 350.622 43.3015 351.743ZM158.653 12.5869C156.144 11.2058 154.17 9.65311 152.782 8.36011 152.523 8.79099 148.738 14.6542 151.402 19.6556 151.833 20.4297 152.523 21.4634 153.739 22.4135 153.385 25.0877 153.049 27.6741 152.782 30.3441 152.876 30.5156 154.075 32.8468 156.661 33.102 158.653 33.3615 160.635 32.2399 161.67 30.432 161.575 28.1888 161.403 25.8619 161.317 23.6187 162.006 23.0161 163.394 21.6393 164.084 19.3961 164.687 17.5003 164.515 15.8597 164.334 15.0855 162.696 14.5665 160.713 13.7923 158.653 12.5871ZM293.651 65.2596C295.298 69.4865 296.927 73.7092 298.574 77.9318 296.669 78.5387 294.694 79.1414 292.789 79.6561 285.03 80.0035 278.65 80.4345 274.254 80.7777 266.753 81.3803 259.951 82.0708 259.856 81.4682 259.856 81.2087 260.718 80.8656 261.503 80.694 257.529 80.5182 255.546 80.263 255.546 79.9156 255.468 79.0534 265.46 77.5008 285.461 75.4334 286.41 74.9144 287.539 74.2282 288.565 73.2781 291.677 70.3486 293.048 67.1554 293.651 65.2596" fill="#FFFFFF" transform="matrix(1.0008 0 0 1 727.086 324.902)"/><path d="M339.26 56.6401C335.027 52.4175 329.173 57.5023 322.095 53.6227 315.983 50.2622 316.241 44.1395 310.638 43.1937 307.439 42.6747 307.094 44.5705 302.447 44.918 294.938 45.5206 292.007 40.7789 287.102 41.7247 284.593 42.2437 281.145 44.311 277.877 52.0701L282.524 55.5185C282.093 54.4012 281.929 53.3632 281.834 52.677 282.619 53.0201 284.343 53.6227 286.576 53.3632 288.904 53.1081 290.55 52.158 291.24 51.639 291.318 51.5554 292.611 51.1243 293.826 51.9864 294.861 52.677 295.025 53.8822 295.025 54.0538 295.197 54.4849 295.551 55.1754 296.232 55.778 297.525 56.9876 298.999 57.0712 299.508 57.0712 300.628 58.7954 300.973 60.7792 300.628 62.4155L301.404 62.675C302.62 61.0387 304.249 60.7792 304.249 60.7792 305.896 60.6912 308.051 60.8671 309.344 62.3318 310.112 63.106 310.379 64.0561 310.284 66.0398L327.699 72.6772C333.389 73.9704 338.829 71.4677 340.812 67.1571 342.441 63.7966 341.846 59.2265 339.26 56.6401ZM256.833 79.6578C257.617 79.7457 258.988 79.9173 261.497 80.0052 261.747 80.0052 262.006 80.2647 262.006 80.5199 262.006 80.7794 261.928 80.951 261.747 81.1268 263.652 81.0389 266.842 80.7794 270.023 80.5199 271.411 80.4363 272.782 80.2647 274.17 80.1768 280.205 79.7457 286.403 79.3147 292.706 79.0552L297.878 77.5025 293.731 66.814C292.611 69.4003 290.981 71.7272 288.904 73.5393 287.964 74.4015 286.835 75.1756 285.636 75.7783 285.541 75.7783 285.455 75.8662 285.455 75.8662 265.885 77.9335 258.988 79.0552 256.833 79.6578ZM261.238 82.2441C259.592 82.2441 259.247 81.9889 259.161 81.5579 259.161 81.382 259.161 81.2104 259.247 81.1268 255.204 80.8673 254.85 80.4363 254.85 79.9173 254.772 79.0552 254.772 78.0215 285.205 74.8325 286.24 74.2299 287.266 73.5393 288.128 72.7608 290.378 70.7814 292.102 68.1071 293.137 65.0897 293.214 64.8302 293.395 64.7466 293.645 64.7466 293.904 64.7466 294.076 64.9182 294.163 65.0897L299.077 77.762C299.171 77.9335 299.171 78.1094 299.077 78.193 298.999 78.3646 298.904 78.4525 298.74 78.4525L292.964 80.1768 292.783 80.1768C286.498 80.4363 280.282 80.7794 274.248 81.2984 272.782 81.382 271.411 81.5579 270.118 81.6415 265.454 81.9889 262.79 82.2441 261.238 82.2441" fill="#0F0E0C" transform="matrix(1.0008 0 0 1 727.086 324.902)"/><path d="M186.57 312.345 412.617 312.345C423.652 312.345 432.799 303.292 432.799 292.171L432.799 102.247C432.799 91.2119 423.747 82.0726 412.617 82.0726L72.9436 82.0726C61.9137 82.0726 52.7744 91.1256 52.7744 102.247L52.7744 292.257C52.7744 303.292 61.8266 312.431 72.9462 312.431L165.546 312.431M186.573 312.345 174.598 312.345" fill="#FFFFFF" transform="matrix(1.0008 0 0 1 727.086 324.902)"/><path d="M152.689 30.3456C149.5 30.693 143.206 31.8983 136.999 36.3804 127.774 43.0179 124.929 52.3296 124.162 55.1754L124.162 71.5556 137.861 78.4525 177.518 78.4525C182.182 75.6067 186.743 72.7608 191.407 69.9193 190.976 65.2613 190.45 60.6076 190.019 55.866 189.847 54.0538 188.553 42.5032 178.38 35.3467 171.483 30.5172 164.25 30.3456 161.664 30.4335 160.629 32.3293 158.647 33.363 156.655 33.1035 153.982 32.8483 152.776 30.5172 152.689 30.3456ZM202.261 347.087 267.963 347.087 267.963 306.74 202.261 306.74ZM328.13 71.0375C322.526 68.3675 318.397 65.5217 315.629 63.2784 310.81 59.4869 307.189 55.4358 302.525 56.0384 301.327 56.2099 300.292 56.641 299.68 56.9884 301.154 58.7127 301.491 61.1231 300.542 63.1069 299.68 64.8311 297.878 66.0407 295.887 66.1243 295.551 64.5716 295.197 63.0232 294.861 61.5542 294.257 61.7301 293.645 61.9016 293.137 62.0732 292.964 62.6758 292.783 63.5379 292.611 64.7475 292.102 68.7106 291.49 72.9376 293.731 75.5239 294.257 76.1265 295.628 77.3318 298.473 77.6792 298.999 78.0223 299.602 78.4534 300.197 78.7965 300.197 77.5033 300.111 71.2133 300.197 66.5553 300.292 61.3826 304.172 60.78 304.172 60.78 305.801 60.6921 307.956 60.868 309.25 62.3327 310.715 63.7974 310.379 65.8648 309.086 74.1428 308.301 78.625 307.87 81.2113 307.525 82.764 308.913 83.4545 310.379 84.0572 312.008 84.6598 318.138 87.0746 323.742 88.1953 328.052 88.7988 328.82 87.4194 330.544 84.1451 330.466 79.6586 330.544 75.6076 328.914 72.4186 328.13 71.0375ZM8.37114 108.627 8.37114 188.201 68.3753 188.201 68.3753 129.835 47.8569 108.627ZM389.771 284.585 107.256 284.585C101.574 284.585 96.9104 279.93 96.9104 274.24L96.9104 117.421C96.9104 111.731 101.574 107.076 107.256 107.076L389.771 107.076C395.461 107.076 400.117 111.731 400.117 117.421L400.117 274.154C400.117 279.93 395.461 284.585 389.771 284.585" fill="#53C28B" transform="matrix(1.0008 0 0 1 727.086 324.902)"/><g clip-path="url(#clip1)"><path d="M465.56 277.946 465.56 157.25C465.56 151.991 461.327 147.767 456.077 147.767L279.851 147.767C274.601 147.767 270.368 151.991 270.368 157.25L270.368 277.946C270.368 283.205 274.601 287.429 279.851 287.429L456.077 287.429C461.327 287.343 465.56 283.119 465.56 277.946ZM161.397 323.811 32.1742 323.811C26.392 323.811 21.6503 319.069 21.6503 313.293L21.6503 235.789C21.6503 230.012 26.392 225.271 32.1707 225.271L161.393 225.271C167.169 225.271 171.911 230.012 171.911 235.789L171.911 313.293C171.911 319.069 167.264 323.811 161.393 323.811" fill="#FFFFFF" transform="matrix(1.0008 0 0 1 727.086 324.902)"/></g><path d="M158.474 166.992 117.093 166.992C113.98 166.992 111.394 164.405 111.394 161.302L111.394 157.681C111.394 154.577 113.98 151.991 117.093 151.991L158.474 151.991C161.569 151.991 164.155 154.577 164.155 157.681L164.155 161.302C164.155 164.492 161.569 166.992 158.474 166.992ZM236.496 260.273 175.794 260.273 175.794 251.048 236.496 251.048ZM263.988 232.599 175.794 232.599C175.535 231.306 174.76 228.288 172.173 225.616 168.466 221.736 163.647 221.478 162.604 221.478L121.912 221.478 121.912 213.977 130.886 213.977C135.016 207.166 142.172 197.683 152.948 195.7 167.699 193.028 174.596 207.166 189.252 204.925 206.658 202.166 209.339 180.441 223.469 181.044 235.452 181.562 240.453 197.511 252.186 195.959 257.617 195.269 261.669 191.045 263.988 187.855ZM386.581 121.3C386.581 123.972 384.426 126.128 381.762 126.128 379.081 126.128 376.926 123.972 376.926 121.3 376.926 118.627 379.081 116.472 381.762 116.472 384.426 116.472 386.581 118.627 386.581 121.3ZM361.58 116.472C358.916 116.472 356.761 118.627 356.761 121.3 356.761 123.972 358.916 126.128 361.58 126.128 364.261 126.128 366.416 123.972 366.416 121.3 366.416 118.627 364.261 116.472 361.58 116.472ZM344.165 121.3C344.165 123.972 342.01 126.128 339.337 126.128 336.673 126.128 334.518 123.972 334.518 121.3 334.518 118.627 336.673 116.472 339.337 116.472 342.01 116.472 344.165 118.627 344.165 121.3" fill="#FFFFFF" transform="matrix(1.0008 0 0 1 727.086 324.902)"/><path d="M87.8582 302.43 78.8974 302.43 78.8974 275.877 87.8582 275.877ZM72.6031 303.81 63.6379 303.81 63.6379 260.79 72.6031 260.79ZM56.741 303.379 47.7733 303.379 47.7733 270.704 56.741 270.704ZM434.348 256.135C433.055 261.221 428.218 265.101 422.356 265.532 422.356 264.497 422.356 263.463 422.451 262.342 422.528 261.307 422.709 260.359 422.959 259.497 423.14 259.324 425.373 257.428 425.037 254.497 424.77 252.686 423.744 251.652 423.313 251.221 422.882 251.307 420.804 251.652 418.907 250.358 416.493 248.807 416.243 246.134 416.148 245.789 415.381 246.22 414.26 246.996 413.131 248.117L413.131 240.358C413.829 240.099 422.019 237.599 428.563 242.772 429.425 243.375 436.15 248.807 434.348 256.135ZM351.404 248.376 351.404 220.615C359.775 225.185 368.137 229.668 376.405 234.237 368.042 238.979 359.68 243.634 351.404 248.376ZM282.357 195.7 282.357 276.049 442.788 276.049 442.788 195.7 282.357 195.7" fill="#0F0E0C" transform="matrix(1.0008 0 0 1 727.086 324.902)"/><path d="M163.552 260.273 134.938 260.273 134.938 264.152 163.552 264.152ZM115.368 252.772C109.765 252.772 105.195 257.342 105.195 262.945 105.195 268.549 109.765 273.118 115.368 273.118 120.972 273.118 125.533 268.549 125.533 262.945 125.533 257.342 120.972 252.772 115.368 252.772ZM72.0841 228.892C70.0167 228.892 68.3796 230.53 68.3796 232.599 68.3796 234.668 70.0167 236.306 72.0841 236.306 74.1558 236.306 75.7921 234.668 75.7921 232.599 75.7921 230.53 74.0678 228.892 72.0841 228.892ZM57.4281 228.892C55.3608 228.892 53.7236 230.53 53.7236 232.599 53.7236 234.668 55.3608 236.306 57.4281 236.306 59.4998 236.306 61.1361 234.668 61.1361 232.599 61.1361 230.53 59.4118 228.892 57.4281 228.892ZM42.085 228.806C40.0142 228.806 38.3779 230.444 38.3779 232.513 38.3779 234.582 40.0142 236.22 42.085 236.22 44.1533 236.22 45.7896 234.582 45.7896 232.513 45.7059 230.444 44.0653 228.806 42.085 228.806ZM426.235 179.837 313.988 179.837 313.988 184.751 426.235 184.751ZM380.371 167.595 313.988 167.595 313.988 173.716 380.371 173.716ZM290.978 165.354C286.236 165.354 282.434 169.233 282.434 173.889 282.434 178.63 286.314 182.424 290.978 182.424 295.625 182.424 299.504 178.544 299.504 173.889 299.504 169.233 295.72 165.354 290.978 165.354ZM165.54 300.965 108.373 300.965 108.373 306.137 165.54 306.137ZM165.54 291.309 108.373 291.309 108.373 296.482 165.54 296.482ZM165.54 286.74 108.373 286.74 108.373 281.567 165.54 281.567 165.54 286.74" fill="#53C28B" transform="matrix(1.0008 0 0 1 727.086 324.902)"/><path d="M396.591 242.686C402.358 240.099 405.212 238.461 404.944 237.858 404.781 237.427 403.393 237.427 400.729 237.858 400.47 230.185 399.772 226.219 398.573 226.047 397.185 225.874 395.203 230.53 392.539 239.927ZM417.109 250.445C418.911 251.565 420.73 251.307 421.161 251.221 421.497 251.565 422.532 252.514 422.713 254.152 423.049 256.738 420.988 258.549 420.807 258.721 420.635 259.497 420.462 260.359 420.376 261.307 420.031 264.411 420.557 267.083 421.161 268.894 420.204 270.791 418.221 271.566 416.678 271.049 415.29 270.532 414.773 269.153 414.695 268.894L414.695 264.842C410.979 264.756 409.35 262.945 408.996 262.514 406.074 259.152 408.393 253.462 410.117 250.703 411.678 248.289 413.66 246.91 414.773 246.22 414.695 246.565 414.954 249.065 417.109 250.445" fill="#FFFFFF" transform="matrix(1.0008 0 0 1 727.086 324.902)"/><path d="M137.861 78.4525C133.981 79.4862 126.912 82.1605 123.127 88.7117 121.308 91.9015 120.713 95.1776 120.877 106.816 120.972 112.765 121.308 120.524 122.084 129.748 126.222 130.179 130.274 130.524 134.412 130.955L137.171 98.9709 158.724 84.5753 177.872 95.6949 178.38 130.955 191.407 131.818C192.433 122.076 193.209 113.454 193.821 106.213 194.502 96.8156 194.683 92.7637 192.605 88.2807 189.683 81.901 184.243 78.3646 180.794 76.5567L177.518 78.4525ZM309.422 62.3318C310.888 63.8845 310.543 65.8639 309.25 74.142 307.793 83.1942 307.525 84.3994 306.146 85.609 304.249 87.2461 301.585 87.1599 296.318 86.9875 287.61 86.6426 285.809 84.4874 278.912 85.1779 276.662 85.4374 273.817 85.9521 273.739 85.609 273.644 85.3495 275.11 84.6589 276.403 84.1442 269.937 83.5373 266.67 83.0226 266.67 82.5916 266.67 82.1605 270.454 81.901 278.05 81.7294L300.37 79.0552C300.37 79.0552 300.292 71.8151 300.37 66.6424 300.465 61.4697 304.344 60.8671 304.344 60.8671 305.974 60.7792 308.129 60.9507 309.422 62.3318" fill="#FFFFFF" transform="matrix(1.0008 0 0 1 727.086 324.902)"/><path d="M335.639 117.075C333.303 117.075 331.406 118.972 331.406 121.3 331.406 123.627 333.303 125.524 335.639 125.524 337.967 125.524 339.855 123.627 339.855 121.3 339.95 118.972 337.967 117.075 335.639 117.075ZM335.639 126.731C332.622 126.731 330.208 124.317 330.208 121.3 330.208 118.282 332.622 115.868 335.639 115.868 338.656 115.868 341.062 118.282 341.062 121.3 341.062 124.317 338.656 126.731 335.639 126.731" fill="#0F0E0C" transform="matrix(1.0008 0 0 1 727.086 324.902)"/><path d="M357.873 117.075C355.545 117.075 353.649 118.972 353.649 121.3 353.649 123.627 355.545 125.524 357.873 125.524 360.209 125.524 362.106 123.627 362.106 121.3 362.183 118.972 360.209 117.075 357.873 117.075ZM357.873 126.731C354.855 126.731 352.45 124.317 352.45 121.3 352.45 118.282 354.855 115.868 357.873 115.868 360.89 115.868 363.304 118.282 363.304 121.3 363.304 124.317 360.89 126.731 357.873 126.731" fill="#0F0E0C" transform="matrix(1.0008 0 0 1 727.086 324.902)"/><path d="M378.055 117.075C375.727 117.075 373.822 118.972 373.822 121.3 373.822 123.627 375.727 125.524 378.055 125.524 380.374 125.524 382.271 123.627 382.271 121.3 382.366 118.972 380.469 117.075 378.055 117.075ZM378.055 126.731C375.038 126.731 372.615 124.317 372.615 121.3 372.615 118.282 375.038 115.868 378.055 115.868 381.072 115.868 383.486 118.282 383.486 121.3 383.486 124.317 381.072 126.731 378.055 126.731" fill="#0F0E0C" transform="matrix(1.0008 0 0 1 727.086 324.902)"/><path d="M399.082 312.948C399.082 312.603 399.082 312.172 399.177 311.827L267.868 311.827C267.868 312.172 267.868 312.603 267.782 312.948L268.566 312.948C268.644 313.293 268.73 313.552 268.825 313.896L273.386 313.896 273.386 353.123 208.813 353.123 208.813 347.864C208.477 347.864 208.046 347.777 207.692 347.777L207.692 353.726C207.692 354.071 207.951 354.33 208.296 354.33L273.998 354.33C274.334 354.33 274.601 354.071 274.601 353.726L274.601 313.379C274.601 313.207 274.506 313.12 274.429 313.034L399.082 313.034ZM402.53 407.608C394.082 410.367 389.952 412.35 390.125 413.471 390.383 414.936 397.711 415.195 412.109 414.074 412.014 411.919 412.014 409.764 411.936 407.608ZM421.419 251.307C421.756 251.652 422.79 252.6 422.963 254.238 423.316 256.824 421.238 258.635 421.066 258.807 420.894 259.583 420.73 260.445 420.635 261.394 420.557 262.428 420.557 263.376 420.557 264.325 425.902 263.98 430.291 260.445 431.506 255.79 433.136 249.151 427.023 244.237 426.239 243.548 420.299 238.806 412.876 241.134 412.186 241.392L412.186 248.462C413.229 247.427 414.264 246.738 414.859 246.393 414.859 246.738 415.126 249.151 417.359 250.617 419.169 251.652 420.988 251.393 421.419 251.307ZM177.087 297.602C176.751 297.602 176.484 297.861 176.484 298.206 176.484 298.551 176.751 298.809 177.087 298.809L398.479 298.809C402.789 298.809 406.763 296.913 409.522 293.55 409.686 293.292 409.686 292.947 409.427 292.775 409.169 292.602 408.824 292.602 408.66 292.861 406.151 295.964 402.453 297.689 398.573 297.689L177.087 297.689ZM267.963 306.741 202.261 306.741 235.108 325.19ZM106.997 283.981 163.035 283.981 163.035 279.929 106.997 279.929ZM105.885 284.584 105.885 279.412C105.885 279.067 106.135 278.808 106.489 278.808L163.647 278.808C163.983 278.808 164.25 279.067 164.25 279.412L164.25 284.584C164.25 284.929 163.983 285.188 163.647 285.188L106.489 285.188C106.135 285.188 105.885 284.929 105.885 284.584ZM376.408 165.957 311.146 165.957 311.146 170.958 376.408 170.958ZM377.529 164.837 377.529 172.078 310.025 172.078 310.025 164.837ZM428.997 403.125C422.532 408.902 419.695 412.35 420.462 413.471 421.419 414.936 427.704 412.953 439.429 407.608 438.998 406.143 438.567 404.591 438.136 403.125ZM106.997 303.465 163.035 303.465 163.035 299.413 106.997 299.413ZM105.885 298.809C105.885 298.465 106.135 298.206 106.489 298.206L163.647 298.206C163.983 298.206 164.25 298.465 164.25 298.809L164.25 303.982C164.25 304.327 163.983 304.586 163.647 304.586L106.489 304.586C106.135 304.586 105.885 304.327 105.885 303.982ZM439.429 292.171 432.799 292.171C432.877 292.516 432.799 292.947 432.627 293.292L439.86 293.292C439.601 293.033 439.524 292.775 439.524 292.43 439.524 292.343 439.429 292.257 439.429 292.171ZM106.997 293.723 163.035 293.723 163.035 289.671 106.997 289.671ZM105.885 289.154C105.885 288.809 106.135 288.55 106.489 288.55L163.647 288.55C163.983 288.55 164.25 288.809 164.25 289.154L164.25 294.326C164.25 294.671 163.983 294.93 163.647 294.93L106.489 294.93C106.135 294.93 105.885 294.671 105.885 294.326ZM263.988 283.981C263.652 282.774 263.471 281.567 263.471 280.274L263.471 196.649C260.023 200.787 256.324 203.201 252.264 203.718 245.884 204.58 241.41 200.442 237.099 196.476 233.125 192.855 229.073 189.062 223.564 188.89 216.917 188.631 212.865 193.545 208.296 199.235 203.735 204.925 198.468 211.391 189.51 212.77 182.087 213.977 176.484 210.96 171.147 208.029 165.621 205.011 160.371 202.252 153.12 203.546 145.189 205.011 138.12 210.787 131.921 220.874L162.69 220.874C170.285 220.874 176.484 227.081 176.484 234.668L176.484 284.067 263.988 284.067ZM175.285 235.271C175.285 227.943 169.328 221.995 162 221.995L39.5797 221.995C32.1707 221.995 26.1359 228.03 26.1359 235.444L26.1359 243.203 175.282 243.203ZM72.7712 192.942 72.7712 135.352 72.5117 135.094 52.771 135.094 52.771 114.661 52.5115 114.403 13.8878 114.403 13.8878 192.855 72.7712 192.855ZM459.689 165.526 459.689 280.274C459.689 285.964 455.982 290.792 450.904 292.602 450.981 292.171 450.981 291.826 450.809 291.395 455.292 289.671 458.568 285.36 458.568 280.274L458.568 165.526C458.568 158.974 453.223 153.629 446.671 153.629L276.489 153.629C269.937 153.629 264.592 158.974 264.592 165.526L264.592 280.274C264.592 286.826 269.937 292.171 276.489 292.171L398.91 292.171C398.746 292.516 398.746 292.947 398.823 293.292L276.489 293.292C270.98 293.292 266.239 289.843 264.333 285.016 264.256 285.102 264.161 285.102 263.988 285.102L176.398 285.102 176.398 306.137C176.398 308.12 175.966 310.017 175.285 311.741L202.089 311.741C202.011 312.086 202.011 312.517 202.011 312.862L174.76 312.862C172.346 317.431 167.604 320.448 162.095 320.448L44.0627 320.448C43.7222 320.448 43.4627 320.19 43.4627 319.845 43.4627 319.5 43.7222 319.241 44.0653 319.241L162.003 319.241C169.331 319.241 175.288 313.293 175.288 305.965L175.288 244.151 26.1419 244.151 26.1385 273.722C27.7756 272.601 29.9309 271.48 32.6044 270.963 39.0702 269.928 43.7248 273.291 44.5869 273.894L41.4816 279.498 41.3979 279.584C41.31 278.463 41.2255 277.515 41.1384 276.739 40.4479 277.946 38.7237 280.36 35.7062 282.084 33.551 283.291 31.5672 283.722 30.2741 283.895 29.2404 284.326 28.5498 285.188 28.3783 286.222 28.2067 287.516 28.9809 288.809 30.2741 289.326L30.2741 293.55C29.4119 293.119 27.6877 292.085 26.0514 290.361L26.0514 290.533 26.0514 297.689C26.0514 298.033 25.7919 298.292 25.4488 298.292 25.1014 298.292 24.8453 298.033 24.8453 297.689L24.8453 290.533C24.8453 290.188 25.1014 289.93 25.4488 289.93 25.5324 289.93 25.6204 289.93 25.7074 290.016 25.1893 289.412 24.6703 288.723 24.1556 287.86 21.2218 282.946 22.3435 277.946 22.69 276.825 23.034 276.394 23.8082 275.446 25.0177 274.411 24.9298 274.325 24.8453 274.153 24.8453 274.067L24.8453 235.099C24.8453 227.168 31.3112 220.702 39.2426 220.702L52.258 220.702 52.258 193.976 13.2912 193.976C12.9481 193.976 12.6886 193.717 12.6886 193.373L12.6886 113.799C12.6886 113.454 12.9481 113.196 13.2912 113.196L52.777 113.196C52.9486 113.196 53.0365 113.282 53.2081 113.368L73.7273 134.576C73.8109 134.662 73.8988 134.835 73.8988 135.007L73.8988 193.373C73.8988 193.717 73.6393 193.976 73.2962 193.976L53.3796 193.976 53.3796 220.702 96.3095 220.702 96.3095 120.351C96.3095 112.765 102.517 106.558 110.103 106.558L120.88 106.558C120.88 106.902 120.975 107.333 121.052 107.678L110.448 107.678C103.301 107.678 97.4389 113.541 97.4389 120.696L97.4389 134.576 111.491 134.576C114.078 133.369 118.293 131.818 124.164 129.921 126.915 130.179 129.596 130.438 132.355 130.697 132.182 132.335 132.087 133.973 131.924 135.611 132.001 135.266 132.087 134.921 132.182 134.576L179.849 134.576 179.849 131.042C182.866 131.214 185.883 131.473 188.901 131.645 194.073 133.197 197.781 134.404 200.031 135.438 199.6 135.094 199.169 134.835 198.565 134.576L399.438 134.576 399.438 120.696C399.438 113.541 393.576 107.678 386.412 107.678L193.901 107.678C193.996 107.333 193.996 106.902 193.996 106.558L387.274 106.558C394.696 106.558 400.731 112.592 400.731 120.007L400.731 147.767C400.731 148.111 400.473 148.37 400.119 148.37 399.774 148.37 399.516 148.111 399.516 147.767L399.516 135.783 200.72 135.783C202.014 136.473 202.695 136.99 202.617 137.421 202.35 138.887 194.763 139.059 179.849 138.111L179.849 135.783 131.924 135.783C131.924 136.128 131.829 136.473 131.829 136.818 116.405 138.456 108.552 138.628 108.215 137.163 108.121 136.818 108.552 136.387 109.336 135.783L97.3441 135.783 97.3441 220.96 130.363 220.96C136.829 210.27 144.329 204.063 152.778 202.511 160.451 201.132 166.055 204.149 171.486 207.08 176.917 210.011 182.004 212.77 189.082 211.649 197.608 210.27 202.522 204.321 207.186 198.459 211.747 192.769 216.144 187.424 223.385 187.683 229.343 187.941 233.558 191.821 237.697 195.614 242.102 199.58 246.154 203.373 252.016 202.597 256.068 202.08 259.853 199.407 263.396 194.838L263.396 165.526C263.396 158.371 269.259 152.508 276.406 152.508L411.413 152.508 411.413 106.73C411.413 99.4882 405.55 93.6258 398.317 93.6258L194.505 93.6258C194.505 93.2809 194.427 92.8499 194.332 92.505L398.481 92.505C399.343 92.505 400.205 92.5912 400.981 92.7637 399.869 91.9015 398.317 89.4014 396.326 85.3495 396.067 83.5373 395.809 81.6415 395.559 79.8336L402.197 79.8336C403.223 88.022 403.137 92.4188 402.024 93.0223 408.137 94.5741 412.62 100.178 412.62 106.73L412.62 152.508 446.673 152.508C453.924 152.508 459.691 158.371 459.691 165.526ZM49.1578 426.575C47.3457 426.144 44.9309 425.368 42.0885 423.73L33.8984 423.73 33.8984 431.058C40.5367 431.058 47.2612 430.972 53.8995 430.972 53.8995 430.282 53.8115 429.334 53.296 428.558 52.3468 427.092 50.6226 426.92 49.1578 426.575ZM311.146 181.906 422.282 181.906 422.282 178.113 311.146 178.113ZM310.025 177.079 423.394 177.079 423.394 183.113 310.025 183.113ZM151.827 20.4321C151.655 20.1726 151.482 19.9175 151.396 19.658 148.732 14.6568 152.517 8.79358 152.776 8.36252 154.241 9.6557 156.138 11.2084 158.647 12.5895 160.707 13.7068 162.69 14.4853 164.25 15 164.414 15.8621 164.509 17.5027 163.983 19.3105 163.552 20.6916 162.862 21.8133 162.259 22.5874 163.035 22.1564 168.561 18.9674 169.423 12.5895 169.854 9.22464 169.328 2.84671 164.414 0.691417 160.879-0.861254 156.319 0.260169 153.12 3.53692 152.439 3.36173 148.56 2.75894 145.973 5.08597 142.525 8.19096 143.292 14.4856 146.482 17.7625 148.379 19.6583 150.715 20.2609 151.827 20.4325ZM136.999 107.678 178.122 107.678 178.122 106.558 137.171 106.558C137.171 106.902 137.094 107.333 136.999 107.678ZM412.617 82.6752C423.394 82.6752 432.196 91.4705 432.196 102.247L432.196 148.025 432.877 148.025 433.308 148.025 433.308 102.247C433.308 90.867 424.006 81.5579 412.617 81.5579L402.453 81.5579C402.53 81.901 402.53 82.3321 402.53 82.6752ZM397.28 49.6596C397.185 48.538 391.495 47.8474 380.115 47.5879L378.391 51.7269 382.702 53.8822C392.539 52.158 397.358 50.6933 397.28 49.6596ZM189.51 82.42C189.588 82.5036 189.588 82.5916 189.683 82.6752L252.014 82.6752 254.074 87.2461 278.817 87.2461 278.817 85.3495 275.463 84.6589 255.635 84.6589 245.979 61.9008 242.703 61.9008 251.402 81.4699 188.898 81.4699C189.157 81.8131 189.329 82.0726 189.51 82.42ZM177.518 78.4525 180.794 55.5185 134.412 55.5185 137.861 78.4525ZM22.0012 423.73C20.5356 423.213 18.4648 422.092 16.3974 419.85L7.1728 419.85 6.39526 427.437C13.2076 428.127 19.9296 428.903 26.7429 429.592 26.8265 428.385 26.8265 426.834 25.7929 425.627 24.7592 424.42 23.5531 424.247 22.0013 423.73ZM53.3805 102.247C53.3805 91.4705 62.1732 82.6752 72.9497 82.6752L128.045 82.6752C128.554 82.2441 128.985 81.901 129.597 81.5579L72.9497 81.5579C61.5706 81.5579 52.2589 90.867 52.2589 102.247L52.2589 112.851C52.6899 113.023 53.0374 113.282 53.3805 113.627ZM82.4329 106.816 82.4329 220.184C82.4329 220.529 82.6924 220.788 83.039 220.788 83.383 220.788 83.6425 220.529 83.6425 220.184L83.6425 106.816C83.6425 99.5744 89.5083 93.712 96.7415 93.712L121.407 93.712C121.484 93.3671 121.579 92.9361 121.657 92.5912L96.7415 92.5912C88.8186 92.5912 82.4329 98.9709 82.4329 106.816ZM172.783 93.1085C172.783 93.2809 172.705 93.5396 172.705 93.712L146.152 93.712C146.583 93.3671 147.014 93.0223 147.35 92.5912L172.093 92.5912C172.274 92.7637 172.524 92.9361 172.783 93.1085ZM177.783 106.558 137.005 106.558 137.005 107.678 177.697 107.678C177.697 107.333 177.697 106.902 177.783 106.558ZM65.4492 179.406 65.4492 178.372C65.4492 177.51 64.7587 176.82 63.8966 176.82L22.3435 176.82C21.4813 176.82 20.7908 177.51 20.7908 178.372L20.7908 179.406C20.7908 180.268 21.4813 180.958 22.3435 180.958L63.8966 180.958C64.7587 180.958 65.4492 180.268 65.4492 179.406ZM65.4492 168.113 65.4492 167.078C65.4492 166.216 64.7587 165.526 63.8966 165.526L22.3435 165.526C21.4813 165.526 20.7908 166.216 20.7908 167.078L20.7908 168.113C20.7908 168.975 21.4813 169.664 22.3435 169.664L63.8966 169.664C64.7587 169.751 65.4492 168.975 65.4492 168.113ZM65.4492 156.905 65.4492 155.871C65.4492 155.008 64.7587 154.319 63.8966 154.319L22.3435 154.319C21.4813 154.319 20.7908 155.008 20.7908 155.871L20.7908 156.905C20.7908 157.767 21.4813 158.457 22.3435 158.457L63.8966 158.457C64.7587 158.543 65.4492 157.767 65.4492 156.905ZM65.4492 146.732 65.4492 145.698C65.4492 144.835 64.7587 144.146 63.8966 144.146L22.3435 144.146C21.4813 144.146 20.7908 144.835 20.7908 145.698L20.7908 146.732C20.7908 147.594 21.4813 148.284 22.3435 148.284L63.8966 148.284C64.7587 148.284 65.4492 147.594 65.4492 146.732ZM42.6911 130.179 22.3435 130.179C21.4813 130.179 20.7908 129.49 20.7908 128.628L20.7908 127.593C20.7908 126.731 21.4813 126.041 22.3435 126.041L42.6032 126.041C43.4653 126.041 44.1558 126.731 44.1558 127.593L44.1558 128.628C44.2429 129.404 43.5532 130.179 42.6911 130.179" fill="#0F0E0C" transform="matrix(1.0008 0 0 1 727.086 324.902)"/><path d="M192.269 88.3669C190.191 83.7132 186.398 79.9173 180.967 77.0714L178.044 78.8836C177.949 78.9715 177.872 78.9715 177.777 78.9715L138.214 78.9715C133.55 80.2647 127.343 83.1062 123.895 88.9703 122.17 91.9878 121.576 95.1776 121.739 106.816 121.834 114.23 122.265 121.731 122.869 129.231L134.154 130.352 136.826 98.9709C136.826 98.7985 136.921 98.626 137.094 98.5398L158.647 84.1442C158.81 84.0563 159.078 84.0563 159.241 84.1442L178.38 95.2638C178.553 95.35 178.639 95.5224 178.639 95.7811L179.165 130.438 191.053 131.214C192.002 122.852 192.778 114.403 193.39 106.126 194.157 96.4708 194.252 92.7637 192.269 88.3669ZM193.295 87.9358C195.364 92.505 195.286 96.3846 194.502 106.126 193.821 114.575 193.036 123.283 192.097 131.818 192.097 132.076 191.838 132.335 191.485 132.335L178.475 131.473C178.208 131.473 177.949 131.214 177.949 130.955L177.441 96.0397 158.905 85.2615 137.861 99.3157 135.197 131.042C135.197 131.214 135.102 131.3 135.016 131.386 134.938 131.473 134.766 131.559 134.585 131.473L122.265 130.266C122.007 130.266 121.739 130.007 121.739 129.748 121.05 122.076 120.713 114.403 120.541 106.816 120.36 94.9189 120.972 91.6429 122.869 88.3669 126.481 82.1605 133.042 79.2267 137.861 77.8499L138.033 77.8499 177.518 77.8499 180.631 75.9541C180.794 75.8662 180.967 75.8662 181.225 75.9541 187.002 78.8836 191.053 82.9347 193.295 87.9358ZM90.0135 277.429C89.8411 277.17 89.5825 276.998 89.1514 276.998L89.0738 276.998C87.522 276.998 83.8106 278.55 81.4837 281.653 79.7595 284.067 79.4121 286.826 79.4121 288.636 79.4121 288.981 79.6716 289.24 80.0181 289.154 80.3621 289.154 80.6216 288.895 80.5337 288.55 80.5337 286.912 80.7932 284.412 82.3458 282.257 84.2416 279.584 87.4272 278.291 88.6427 278.119 88.2117 278.636 86.9961 279.843 83.7226 282.429 83.5511 282.602 83.4666 282.774 83.5511 283.033 83.639 283.205 83.8106 283.377 83.9821 283.464 85.8779 283.895 87.8582 284.757 87.953 285.447 87.953 285.705 87.522 286.222 86.3926 287.171 85.1038 288.292 83.8106 289.24 82.4295 290.188 82.1734 290.361 82.0863 290.705 82.2579 290.964 82.3458 291.137 82.5174 291.223 82.689 291.223 82.7769 291.223 82.9485 291.223 83.0355 291.137 84.4132 290.188 85.7943 289.154 87.0909 288.033 88.5479 286.74 89.0738 286.136 89.0738 285.447 88.979 283.981 86.9185 283.119 85.3633 282.688 90.2721 278.808 90.367 278.032 90.0135 277.429ZM396.065 79.7457C396.065 79.4862 395.806 79.3147 395.556 79.2267L370.727 77.6784 383.133 54.1417C383.228 53.9702 383.228 53.8822 383.133 53.7107 383.055 53.5391 382.96 53.4512 382.874 53.3632L377.96 50.8648C377.702 50.7769 377.452 50.7769 377.27 51.0364L360.977 73.9704 337.268 70.6935C336.932 70.6056 336.673 70.8651 336.673 71.2125 336.579 71.5556 336.837 71.8151 337.182 71.8151L361.244 75.1756C361.502 75.1756 361.675 75.092 361.752 74.9161L377.96 52.158 381.935 54.1417 369.511 77.5904 346.665 75.1756C346.321 75.1756 346.062 75.3472 346.062 75.6946 346.062 76.0378 346.234 76.2972 346.588 76.2972L369.865 78.712 395.125 80.3483 395.987 86.4702 371.925 86.4702 329.078 86.6426C328.742 86.6426 328.483 86.9013 328.483 87.2461 328.483 87.591 328.742 87.8496 329.078 87.8496L371.925 87.6772 396.668 87.6772C396.849 87.6772 397.022 87.591 397.099 87.5048 397.185 87.4185 397.28 87.2461 397.28 87.0737ZM433.136 373.641 439.524 402.953C439.524 403.125 439.524 403.298 439.429 403.47 439.343 403.643 439.17 403.643 438.998 403.643L429.084 403.643C428.825 403.643 428.566 403.47 428.566 403.212L420.635 375.796 415.385 344.588 411.41 370.451 412.617 407.522C412.617 407.695 412.54 407.867 412.445 407.953 412.367 408.039 412.186 408.126 412.014 408.126L402.53 408.126C402.272 408.126 402.022 407.953 401.927 407.608L396.927 373.555 398.746 322.776C398.746 322.431 399.004 322.259 399.341 322.259 399.685 322.259 399.867 322.518 399.867 322.862L397.961 373.555 402.884 407.091 411.246 407.091 410.031 370.537 414.6 341.139 414.6 332.69C414.6 332.346 414.859 332.087 415.204 332.087 415.557 332.087 415.816 332.346 415.816 332.69L415.816 341.139 415.816 341.053C415.816 340.881 415.721 340.794 415.635 340.708L415.816 341.053 415.816 341.225 415.816 341.053 421.669 375.538 429.428 402.522 438.231 402.522 432.015 373.813 429.86 323.552C429.86 323.207 430.118 322.949 430.377 322.949 430.722 322.949 430.98 323.207 430.98 323.466ZM453.921 321.311C453.921 320.966 453.568 320.793 453.318 320.793 452.964 320.793 452.792 321.138 452.792 321.397 453.999 333.38 452.964 334.587 452.792 334.673 452.706 334.673 451.594 334.501 448.145 326.828 448.05 326.569 447.792 326.483 447.619 326.483 447.36 326.483 447.188 326.656 447.102 326.914 446.852 327.863 446.593 328.552 446.421 328.983 446.326 328.035 446.24 326.052 446.498 321.828 446.498 321.483 446.24 321.224 445.99 321.224 445.636 321.138 445.378 321.483 445.378 321.742 444.947 330.535 445.559 330.621 446.162 330.708 446.671 330.794 447.102 330.449 447.714 328.639 450.473 334.673 451.766 335.88 452.706 335.88L452.964 335.88C454.18 335.535 455.12 333.553 453.921 321.311ZM309.086 62.762C308.129 61.7284 306.577 61.2973 304.422 61.3809 304.077 61.4689 301.059 62.1594 300.973 66.6416 300.896 71.8142 300.973 78.9707 300.973 79.0543 300.973 79.3138 300.801 79.5733 300.465 79.6569L278.127 82.3312C273.136 82.4191 270.368 82.5907 268.903 82.7623 270.196 83.0218 272.523 83.2812 276.489 83.7123 276.756 83.7123 276.92 83.9675 277.015 84.227 277.015 84.4865 276.92 84.746 276.662 84.8296 276.403 84.9175 276.058 85.0891 275.894 85.177 276.231 85.177 276.489 85.0891 276.834 85.0891 277.524 85.0055 278.213 84.9175 278.912 84.8296 279.938 84.746 280.8 84.658 281.662 84.658 283.99 84.658 285.809 85.0055 287.869 85.4365 290.119 85.8676 292.611 86.3831 296.49 86.5556L296.663 86.5556C301.663 86.728 304.249 86.8142 305.974 85.3486 307.189 84.3149 307.362 83.1054 308.818 74.229 310.025 66.0389 310.284 64.0552 309.086 62.762ZM299.171 57.5014C298.309 57.4178 297.016 57.0703 295.887 56.0367 295.292 55.5177 294.861 54.8314 294.507 54.1409L294.507 53.9693C294.507 53.7934 294.335 52.9313 293.568 52.3287 292.706 51.7261 291.843 51.9856 291.576 52.0692 290.55 52.7598 288.904 53.6219 286.748 53.8814 285.11 54.0529 283.731 53.7934 282.619 53.4503 282.955 55.003 283.559 56.4677 284.515 57.7609 285.205 58.7946 286.748 60.8662 289.593 61.5525 291.749 62.0715 293.731 61.4689 294.688 61.0378 294.766 61.0378 294.861 60.9499 294.938 60.9499 295.025 60.9499 295.119 60.9499 295.197 61.0378 295.369 61.1214 295.456 61.2973 295.456 61.3809L296.413 65.5199C297.18 65.432 298.309 65.1768 299.171 64.2268 300.465 62.762 300.542 59.9162 299.171 57.5014ZM309.853 61.9835C311.5 63.7078 311.146 66.2105 309.775 74.3127 308.224 83.5364 307.956 84.8296 306.499 86.0392 305.034 87.3315 303.215 87.6763 300.37 87.6763 299.249 87.6763 297.956 87.5901 296.413 87.5901L296.232 87.5901C292.274 87.4177 289.688 86.9004 287.438 86.4694 284.679 85.8676 282.619 85.4365 278.912 85.8676 278.213 85.9512 277.524 86.0392 276.834 86.1228 274.248 86.4694 273.308 86.6418 273.136 85.8676 273.041 85.4365 273.213 85.0891 274.17 84.658 266.058 83.7959 266.058 83.3649 266.058 82.7623 266.058 82.0717 266.144 81.557 277.955 81.2975L299.766 78.7112C299.766 76.9869 299.68 71.1237 299.766 66.7252 299.766 66.0389 299.861 65.432 300.034 64.8294 299.939 64.9173 299.861 65.0889 299.766 65.1768 298.473 66.5536 296.663 66.7252 295.723 66.8131 295.456 66.8131 295.197 66.6416 295.197 66.3821L294.335 62.4146C293.042 62.8457 291.24 63.1931 289.162 62.6741 285.886 61.8999 284.162 59.4851 283.386 58.4515 282.188 56.8108 281.403 54.7435 281.145 52.6761 281.145 52.5003 281.231 52.2451 281.403 52.1571 281.576 52.0692 281.757 51.9856 281.929 52.0692 282.869 52.5003 284.515 52.9313 286.403 52.7598 288.395 52.5882 289.852 51.7261 290.809 51.1235 290.809 51.1235 290.887 51.0355 290.981 51.0355 291.24 50.9519 292.706 50.5209 294.076 51.383 295.197 52.1571 295.456 53.2788 295.551 53.7098 295.801 54.3124 296.154 54.7435 296.585 55.1745 297.611 56.1246 298.818 56.2962 299.508 56.3798 299.68 56.3798 299.861 56.4677 299.939 56.6393 301.059 58.4515 301.491 60.4352 301.154 62.243 302.447 60.5188 304.249 60.2593 304.249 60.2593L304.344 60.2593C306.836 60.1757 308.655 60.6904 309.853 61.9835ZM29.7602 289.841 29.7602 297.945C29.7602 298.289 30.0189 298.548 30.3629 298.548 30.706 298.548 30.9655 298.289 30.9655 297.945L30.9655 289.496C30.9655 289.237 30.7939 289.065 30.6224 288.979 29.5878 288.548 28.8981 287.513 29.0697 286.478 29.1568 285.703 29.7602 285.013 30.5344 284.668 32.5181 284.409 34.4139 283.806 36.1382 282.858 38.2935 281.651 39.8461 280.099 40.8798 278.719 40.9677 279.582 40.9677 280.357 40.9677 281.22 41.0514 285.875 41.0514 288.375 39.5021 290.186 38.8125 291.048 37.7779 291.651 36.4847 292.082 36.2261 292.168 36.0537 292.341 36.0537 292.6L36.0537 298.031C36.0537 298.376 36.3097 298.634 36.6572 298.634 37.0003 298.634 37.2598 298.376 37.2598 298.031L37.2598 293.031C38.553 292.6 39.5866 291.824 40.3643 290.962 42.2609 288.72 42.2609 285.703 42.173 281.22 42.173 279.84 42.0885 278.461 41.9135 277.081 41.9135 276.823 41.7419 276.65 41.4824 276.564 41.2264 276.478 40.9677 276.65 40.8798 276.823 40.0177 278.288 38.3814 280.444 35.6226 281.909 33.9829 282.771 32.2586 283.375 30.3629 283.634L30.1913 283.634C28.9817 284.065 28.1196 285.185 27.9481 286.392 27.6049 287.685 28.3791 289.065 29.7602 289.841ZM153.301 22.6711 152.344 30.2585C152.344 30.6017 152.517 30.8612 152.87 30.8612 153.12 30.8612 153.474 30.6896 153.474 30.3422L154.414 22.4116C154.414 22.24 154.336 21.9805 154.241 21.8926 153.301 21.2063 152.517 20.2563 152.086 19.3062 150.025 15.3431 152.258 10.773 153.12 9.1367 154.845 10.6014 156.655 11.8946 158.647 13.0162 160.371 13.962 162.173 14.7405 164.078 15.3431 164.25 16.6362 164.155 17.9294 163.724 19.051 163.121 21.0305 162 22.3236 161.138 23.0142 160.966 23.1021 160.966 23.2737 160.966 23.4452L161.31 30.2585C161.31 30.6017 161.569 30.7732 161.923 30.7732 162.259 30.7732 162.431 30.5137 162.431 30.1706L162.095 23.6168C163.035 22.7547 164.155 21.3779 164.845 19.3062 165.276 17.8415 165.449 16.2052 165.19 14.6525 165.19 14.481 165.018 14.3094 164.845 14.2215 162.957 13.6188 161.06 12.8404 159.336 11.8067 157.259 10.6851 155.276 9.22033 153.551 7.668 153.474 7.58386 153.301 7.49627 153.12 7.49627 152.948 7.49627 152.776 7.58386 152.689 7.75559 152.258 8.44598 148.465 14.393 151.224 19.6537 151.577 20.9468 152.344 21.8926 153.301 22.6711ZM46.3991 384.501 42.7756 352.086C38.553 350.706 34.1544 349.93 29.7602 349.758 24.6712 349.499 19.6735 350.016 14.7568 351.223L14.2422 388.812 7.86017 419.244 15.9664 419.244 24.2401 393.122C24.4996 391.915 29.9318 362.517 30.3629 361.052 30.4499 360.793 30.7939 360.534 31.0534 360.62 31.312 360.707 31.5681 361.052 31.4845 361.31 31.3965 361.741 30.7939 364.5 30.1034 368.379L34.4139 386.225 34.4139 386.398 34.4139 423.21 41.4824 423.21ZM43.8972 351.654 47.5172 384.501 47.5172 384.673 42.604 423.9C42.604 424.158 42.3445 424.417 42.0014 424.417L33.8113 424.417C33.4673 424.417 33.2087 424.158 33.2087 423.814L33.2087 386.484 29.3292 371.224C28.036 378.208 26.2238 387.432 25.1022 393.467L16.7406 420.106C16.6561 420.365 16.4811 420.538 16.225 420.538L7.1728 420.538C6.99805 420.538 6.82632 420.451 6.74209 420.365 6.6545 420.193 6.56699 420.02 6.6545 419.934L13.2076 388.898 13.7232 351.051C13.7232 350.792 13.8947 350.534 14.1542 350.534 19.3269 349.154 24.5875 348.637 29.9318 348.896 34.5855 349.154 39.1556 350.016 43.5541 351.396 43.7257 351.223 43.8127 351.396 43.8972 351.654ZM5.53306 350.103C5.102 350.62 4.67094 351.137 4.32739 351.741 3.29354 353.292 2.94671 354.672 2.60316 355.62 2.34383 356.482 2.1721 357.086 1.56931 357.086 1.39421 357.086 1.22248 357 1.05066 356.827 0.276144 355.965-0.0706935 351.999 0.0168113 348.809 0.101023 346.654 0.447886 344.499 1.05066 342.344 1.13825 342.085 1.48172 341.826 1.74104 341.913 2.0846 341.999 2.25633 342.344 2.1721 342.602 1.65354 344.671 1.30998 346.74 1.22248 348.809 1.05066 351.568 1.39421 353.982 1.65354 355.189 1.91278 354.241 2.43143 352.775 3.46527 351.137 3.98056 350.275 4.67094 349.499 5.36124 348.723 5.44883 348.637 5.70479 348.551 5.87989 348.551 6.05162 348.551 6.22336 348.723 6.31095 348.809 6.742 349.585 6.99797 349.93 7.17306 350.189 7.3448 349.585 7.42902 347.947 6.82623 342.947 6.82623 342.602 6.99797 342.344 7.3448 342.344 7.68835 342.257 7.94759 342.516 7.94759 342.861 8.89695 350.534 8.29114 351.31 7.51653 351.568 6.65441 351.654 6.13585 351.051 5.53306 350.103" fill="#0F0E0C" transform="matrix(1.0008 0 0 1 727.086 324.902)"/><path d="M414.695 268.894C411.936 269.497 406.936 270.101 400.979 268.808 394.435 267.342 389.857 264.152 387.616 262.342L398.746 244.237 391.495 239.237C386.073 244.237 382.529 249.065 380.374 252.6 377.02 257.859 375.201 260.704 375.727 264.411 376.331 269.066 380.21 272.084 384.254 275.101 386.84 277.084 391.495 280.101 398.392 281.739 398.746 295.447 399.082 309.241 399.513 322.949 403.393 324.156 408.996 325.362 415.816 325.449 422.885 325.449 428.747 324.156 432.705 322.949L432.705 287.602C434.351 288.292 437.015 289.671 439.524 292.43 441.757 294.844 442.878 297.171 443.576 298.809 444.084 306.482 444.602 314.241 445.128 321.914L455.042 321.483C454.947 318.724 454.783 314.845 454.257 310.189 453.137 300.62 452.102 291.826 446.671 283.119 444.343 279.326 441.326 274.498 435.213 271.48 429.515 268.721 424.083 268.894 421.325 269.153 420.807 270.618 419.342 271.566 417.876 271.48 416.324 271.135 415.126 270.187 414.695 268.894ZM36.5623 297.861 58.3747 305.189 79.4966 288.205 83.4632 291.05C79.6681 296.826 76.0481 301.396 73.2902 304.758 67.7701 311.31 65.3587 313.034 62.4258 313.724 60.7016 314.155 58.6342 313.983 54.4952 313.724 50.4441 313.465 47.0793 313.034 44.6679 312.603 44.1498 318.379 43.8903 324.587 43.8903 331.225 43.8903 338.467 44.1498 345.277 44.6679 351.485 39.7513 351.743 34.407 351.829 28.7188 351.657 23.6306 351.485 18.8045 351.14 14.3189 350.709 15.0974 345.708 15.7 340.191 15.9595 334.07 16.2181 328.207 16.131 322.862 15.7871 318.035 13.5447 322 11.2179 325.966 8.97463 329.846L8.2001 342.777 0.784612 342.432C0.612826 337.777 1.04385 331.052 3.54269 323.38 7.59731 311.138 14.9252 303.292 18.8892 299.585L30.3562 297.947C30.4433 298.12 31.4778 299.499 33.3736 299.585 35.2694 299.585 36.4781 298.033 36.5626 297.861" fill="#53C28B" transform="matrix(1.0008 0 0 1 727.086 324.902)"/></g></svg>